<svg viewBox="0 0 20 20"  xmlns="http://www.w3.org/2000/svg">
<path d="M9.99987 3.25C14.0439 3.25 17.4084 6.16 18.1141 10C17.4091 13.84 14.0439 16.75 9.99987 16.75C5.95587 16.75 2.59137 13.84 1.88562 10C2.59062 6.16 5.95587 3.25 9.99987 3.25ZM9.99987 15.25C11.5295 15.2497 13.0137 14.7301 14.2095 13.7764C15.4054 12.8226 16.242 11.4912 16.5826 10C16.2408 8.50998 15.4036 7.18 14.2078 6.22752C13.0121 5.27504 11.5286 4.7564 9.99987 4.7564C8.47114 4.7564 6.98764 5.27504 5.7919 6.22752C4.59617 7.18 3.75895 8.50998 3.41712 10C3.75769 11.4912 4.59438 12.8226 5.79023 13.7764C6.98608 14.7301 8.47027 15.2497 9.99987 15.25ZM9.99987 13.375C9.10476 13.375 8.24632 13.0194 7.61339 12.3865C6.98045 11.7535 6.62487 10.8951 6.62487 10C6.62487 9.10489 6.98045 8.24645 7.61339 7.61351C8.24632 6.98058 9.10476 6.625 9.99987 6.625C10.895 6.625 11.7534 6.98058 12.3864 7.61351C13.0193 8.24645 13.3749 9.10489 13.3749 10C13.3749 10.8951 13.0193 11.7535 12.3864 12.3865C11.7534 13.0194 10.895 13.375 9.99987 13.375ZM9.99987 11.875C10.4972 11.875 10.9741 11.6775 11.3257 11.3258C11.6773 10.9742 11.8749 10.4973 11.8749 10C11.8749 9.50272 11.6773 9.02581 11.3257 8.67417C10.9741 8.32254 10.4972 8.125 9.99987 8.125C9.50259 8.125 9.02568 8.32254 8.67405 8.67417C8.32241 9.02581 8.12487 9.50272 8.12487 10C8.12487 10.4973 8.32241 10.9742 8.67405 11.3258C9.02568 11.6775 9.50259 11.875 9.99987 11.875Z" />
</svg>
