<svg viewBox="0 0 21 20"  xmlns="http://www.w3.org/2000/svg">
<path d="M15.7938 16.5667C14.2109 17.5707 12.3744 18.1024 10.5 18.0994C5.64718 18.0994 1.60978 14.6074 0.762878 9.99942C1.14991 7.90307 2.20434 5.98803 3.76888 4.54002L0.952778 1.72663L2.22628 0.453125L20.0454 18.2731L18.7719 19.5457L15.7929 16.5667H15.7938ZM5.04148 5.81442C3.81838 6.92646 2.96636 8.38733 2.60068 9.99942C2.88174 11.2292 3.44602 12.3765 4.24858 13.3498C5.05115 14.3231 6.06984 15.0956 7.22358 15.6058C8.37731 16.116 9.63422 16.3499 10.8943 16.2887C12.1543 16.2276 13.3827 15.8732 14.4816 15.2536L12.6564 13.4284C11.8794 13.9179 10.9592 14.1287 10.0466 14.0264C9.13403 13.9241 8.28332 13.5147 7.63399 12.8654C6.98467 12.2161 6.57528 11.3654 6.47298 10.4528C6.37068 9.54025 6.58154 8.62 7.07098 7.84303L5.04148 5.81442ZM11.3226 12.0946L8.40478 9.17683C8.24464 9.58447 8.20695 10.03 8.29633 10.4587C8.38572 10.8875 8.59829 11.2808 8.90799 11.5905C9.21768 11.9002 9.61102 12.1128 10.0398 12.2022C10.4685 12.2916 10.914 12.2539 11.3217 12.0937L11.3226 12.0946ZM18.4263 14.1322L17.1384 12.8452C17.74 11.9878 18.1683 11.0211 18.3993 9.99942C18.1547 8.92818 17.6948 7.91786 17.0476 7.02987C16.4004 6.14188 15.5794 5.39478 14.6345 4.83397C13.6895 4.27316 12.6404 3.91036 11.5509 3.76761C10.4614 3.62487 9.35428 3.70517 8.29678 4.00362L6.87658 2.58343C7.99888 2.14243 9.22198 1.89942 10.5 1.89942C15.3528 1.89942 19.3902 5.39143 20.2371 9.99942C19.9613 11.4986 19.3415 12.9132 18.4263 14.1322ZM10.2507 5.95662C10.8235 5.92122 11.3974 6.00798 11.9342 6.21116C12.471 6.41434 12.9584 6.72928 13.3643 7.13513C13.7701 7.54098 14.0851 8.02845 14.2882 8.56524C14.4914 9.10202 14.5782 9.67587 14.5428 10.2487L10.2498 5.95662H10.2507Z" />
</svg>
