<svg viewBox="0 0 25 24" xmlns="http://www.w3.org/2000/svg">
<path d="M15.2 4.8H6.20002V19.2H18.8V8.4H15.2V4.8ZM4.40002 3.8928C4.40002 3.3996 4.80232 3 5.29912 3H16.1L20.6 7.5V20.0937C20.6009 20.2119 20.5784 20.3291 20.5339 20.4386C20.4895 20.5481 20.4239 20.6478 20.3409 20.7319C20.2579 20.8161 20.1591 20.8831 20.0503 20.9291C19.9414 20.9751 19.8245 20.9992 19.7063 21H5.29372C5.05736 20.9984 4.83114 20.9038 4.66392 20.7367C4.4967 20.5697 4.40191 20.3436 4.40002 20.1072V3.8928ZM12.5 11.55C11.9033 11.55 11.331 11.3129 10.909 10.891C10.4871 10.469 10.25 9.89674 10.25 9.3C10.25 8.70326 10.4871 8.13097 10.909 7.70901C11.331 7.28705 11.9033 7.05 12.5 7.05C13.0968 7.05 13.6691 7.28705 14.091 7.70901C14.513 8.13097 14.75 8.70326 14.75 9.3C14.75 9.89674 14.513 10.469 14.091 10.891C13.6691 11.3129 13.0968 11.55 12.5 11.55ZM8.47432 16.5C8.58342 15.5086 9.05454 14.5922 9.7974 13.9267C10.5403 13.2611 11.5026 12.893 12.5 12.893C13.4974 12.893 14.4598 13.2611 15.2027 13.9267C15.9455 14.5922 16.4166 15.5086 16.5257 16.5H8.47432Z" />
</svg>
