<svg width="20" height="20" viewBox="0 0 25 24" fill="none" xmlns="http://www.w3.org/2000/svg">
<path d="M12.5 21C7.5293 21 3.5 16.9707 3.5 12C3.5 7.0293 7.5293 3 12.5 3C17.4707 3 21.5 7.0293 21.5 12C21.5 16.9707 17.4707 21 12.5 21ZM12.5 19.2C14.4096 19.2 16.2409 18.4414 17.5912 17.0912C18.9414 15.7409 19.7 13.9096 19.7 12C19.7 10.0904 18.9414 8.25909 17.5912 6.90883C16.2409 5.55857 14.4096 4.8 12.5 4.8C10.5904 4.8 8.75909 5.55857 7.40883 6.90883C6.05857 8.25909 5.3 10.0904 5.3 12C5.3 13.9096 6.05857 15.7409 7.40883 17.0912C8.75909 18.4414 10.5904 19.2 12.5 19.2ZM9.35 13.8H14.3C14.4193 13.8 14.5338 13.7526 14.6182 13.6682C14.7026 13.5838 14.75 13.4693 14.75 13.35C14.75 13.2307 14.7026 13.1162 14.6182 13.0318C14.5338 12.9474 14.4193 12.9 14.3 12.9H10.7C10.1033 12.9 9.53097 12.6629 9.10901 12.241C8.68705 11.819 8.45 11.2467 8.45 10.65C8.45 10.0533 8.68705 9.48097 9.10901 9.05901C9.53097 8.63705 10.1033 8.4 10.7 8.4H11.6V6.6H13.4V8.4H15.65V10.2H10.7C10.5807 10.2 10.4662 10.2474 10.3818 10.3318C10.2974 10.4162 10.25 10.5307 10.25 10.65C10.25 10.7693 10.2974 10.8838 10.3818 10.9682C10.4662 11.0526 10.5807 11.1 10.7 11.1H14.3C14.8967 11.1 15.469 11.3371 15.891 11.759C16.3129 12.181 16.55 12.7533 16.55 13.35C16.55 13.9467 16.3129 14.519 15.891 14.941C15.469 15.3629 14.8967 15.6 14.3 15.6H13.4V17.4H11.6V15.6H9.35V13.8Z" fill="#85BB65"/>
</svg>
