<svg width="25" height="24" viewBox="0 0 25 24" fill="none" xmlns="http://www.w3.org/2000/svg">
<path d="M12.5 21C7.5293 21 3.5 16.9707 3.5 12C3.5 7.0293 7.5293 3 12.5 3C17.4707 3 21.5 7.0293 21.5 12C21.5 16.9707 17.4707 21 12.5 21ZM9.35 13.8V15.6H11.6V17.4H13.4V15.6H14.3C14.8967 15.6 15.469 15.3629 15.891 14.941C16.3129 14.519 16.55 13.9467 16.55 13.35C16.55 12.7533 16.3129 12.181 15.891 11.759C15.469 11.3371 14.8967 11.1 14.3 11.1H10.7C10.5807 11.1 10.4662 11.0526 10.3818 10.9682C10.2974 10.8838 10.25 10.7693 10.25 10.65C10.25 10.5307 10.2974 10.4162 10.3818 10.3318C10.4662 10.2474 10.5807 10.2 10.7 10.2H15.65V8.4H13.4V6.6H11.6V8.4H10.7C10.1033 8.4 9.53097 8.63705 9.10901 9.05901C8.68705 9.48097 8.45 10.0533 8.45 10.65C8.45 11.2467 8.68705 11.819 9.10901 12.241C9.53097 12.6629 10.1033 12.9 10.7 12.9H14.3C14.4193 12.9 14.5338 12.9474 14.6182 13.0318C14.7026 13.1162 14.75 13.2307 14.75 13.35C14.75 13.4693 14.7026 13.5838 14.6182 13.6682C14.5338 13.7526 14.4193 13.8 14.3 13.8H9.35Z" fill="#85BB65"/>
</svg>
