<svg width="23" height="23" viewBox="0 0 25 24" fill="none" xmlns="http://www.w3.org/2000/svg">
<path d="M17 4.79891V3.06011C16.9999 2.97452 17.0241 2.89068 17.07 2.8184C17.1158 2.74612 17.1813 2.68841 17.2588 2.65204C17.3362 2.61567 17.4225 2.60214 17.5073 2.61304C17.5922 2.62395 17.6722 2.65883 17.738 2.71361L21.446 5.80331C21.5171 5.86256 21.5681 5.94229 21.5922 6.03161C21.6164 6.12094 21.6124 6.21553 21.5808 6.3025C21.5492 6.38947 21.4916 6.46459 21.4158 6.51763C21.3399 6.57067 21.2496 6.59905 21.1571 6.59891H3.5V4.79891H17ZM3.5 17.3989H21.5V19.1989H3.5V17.3989ZM3.5 11.0989H21.5V12.8989H3.5V11.0989Z" fill="#0A0D14"/>
</svg>
