<svg  viewBox="0 0 25 24" xmlns="http://www.w3.org/2000/svg">
<path d="M11.6 1.6886C11.897 1.6625 12.1967 1.6499 12.5 1.6499C18.2159 1.6499 22.85 6.284 22.85 11.9999C22.85 12.3032 22.8374 12.6029 22.8113 12.8999H21.4559C21.0041 17.4476 17.1665 20.9999 12.5 20.9999C7.5293 20.9999 3.5 16.9706 3.5 11.9999C3.5 7.3334 7.0523 3.4958 11.6 3.0449V1.6877V1.6886ZM11.6 12.8999V4.8557C9.78444 5.08672 8.12497 6.00038 6.95887 7.411C5.79277 8.82161 5.20755 10.6233 5.32216 12.4499C5.43677 14.2765 6.2426 15.991 7.57587 17.2448C8.90914 18.4986 10.6698 19.1976 12.5 19.1999C14.2537 19.1999 15.9472 18.5598 17.2626 17.3999C18.5779 16.24 19.4248 14.6399 19.6442 12.8999H11.6ZM21.0032 11.0999C20.7969 9.15401 19.9295 7.33772 18.5459 5.95405C17.1622 4.57039 15.3459 3.70303 13.4 3.4967V11.0999H21.0032Z" />
</svg>
