<svg width="22" height="22" viewBox="0 0 25 24" fill="none" xmlns="http://www.w3.org/2000/svg">
<path d="M17.9279 16.1553L21.7826 20.0091L20.5091 21.2826L16.6553 17.4279C15.2214 18.5774 13.4378 19.2026 11.6 19.2C7.1288 19.2 3.5 15.5712 3.5 11.1C3.5 6.6288 7.1288 3 11.6 3C16.0712 3 19.7 6.6288 19.7 11.1C19.7026 12.9378 19.0774 14.7214 17.9279 16.1553ZM16.1225 15.4875C17.2647 14.3129 17.9026 12.7384 17.9 11.1C17.9 7.6188 15.0803 4.8 11.6 4.8C8.1188 4.8 5.3 7.6188 5.3 11.1C5.3 14.5803 8.1188 17.4 11.6 17.4C13.2384 17.4026 14.8129 16.7647 15.9875 15.6225L16.1225 15.4875Z" fill="#868C98"/>
</svg>
