<svg viewBox="0 0 25 24"  xmlns="http://www.w3.org/2000/svg">
<path d="M5.29999 6.97255L2.38129 4.05475L3.65479 2.78125L6.57259 5.69995H20.2904C20.4307 5.69994 20.569 5.73272 20.6944 5.79568C20.8197 5.85864 20.9286 5.95003 21.0124 6.06256C21.0962 6.17508 21.1525 6.30563 21.1768 6.44379C21.2011 6.58194 21.1928 6.72387 21.1526 6.85825L18.9926 14.0582C18.937 14.2437 18.8231 14.4063 18.6678 14.5219C18.5125 14.6375 18.324 14.7 18.1304 14.6999H7.09999V16.4999H17V18.2999H6.19999C5.96129 18.2999 5.73237 18.2051 5.56359 18.0363C5.39481 17.8676 5.29999 17.6386 5.29999 17.4V6.97255ZM7.09999 7.49995V12.9H17.4608L19.0808 7.49995H7.09999ZM6.64999 21.9C6.29194 21.9 5.94857 21.7577 5.69539 21.5045C5.44222 21.2514 5.29999 20.908 5.29999 20.5499C5.29999 20.1919 5.44222 19.8485 5.69539 19.5954C5.94857 19.3422 6.29194 19.1999 6.64999 19.1999C7.00803 19.1999 7.35141 19.3422 7.60458 19.5954C7.85776 19.8485 7.99999 20.1919 7.99999 20.5499C7.99999 20.908 7.85776 21.2514 7.60458 21.5045C7.35141 21.7577 7.00803 21.9 6.64999 21.9ZM17.45 21.9C17.0919 21.9 16.7486 21.7577 16.4954 21.5045C16.2422 21.2514 16.1 20.908 16.1 20.5499C16.1 20.1919 16.2422 19.8485 16.4954 19.5954C16.7486 19.3422 17.0919 19.1999 17.45 19.1999C17.808 19.1999 18.1514 19.3422 18.4046 19.5954C18.6578 19.8485 18.8 20.1919 18.8 20.5499C18.8 20.908 18.6578 21.2514 18.4046 21.5045C18.1514 21.7577 17.808 21.9 17.45 21.9Z" />
</svg>
