<svg width="20" height="20" viewBox="0 0 20 20" fill="none" xmlns="http://www.w3.org/2000/svg">
<path d="M4.75 16H15.25V17.5H4.75V16ZM10 14.5C8.4087 14.5 6.88258 13.8679 5.75736 12.7426C4.63214 11.6174 4 10.0913 4 8.5C4 6.9087 4.63214 5.38258 5.75736 4.25736C6.88258 3.13214 8.4087 2.5 10 2.5C11.5913 2.5 13.1174 3.13214 14.2426 4.25736C15.3679 5.38258 16 6.9087 16 8.5C16 10.0913 15.3679 11.6174 14.2426 12.7426C13.1174 13.8679 11.5913 14.5 10 14.5ZM10 13C11.1935 13 12.3381 12.5259 13.182 11.682C14.0259 10.8381 14.5 9.69347 14.5 8.5C14.5 7.30653 14.0259 6.16193 13.182 5.31802C12.3381 4.47411 11.1935 4 10 4C8.80653 4 7.66193 4.47411 6.81802 5.31802C5.97411 6.16193 5.5 7.30653 5.5 8.5C5.5 9.69347 5.97411 10.8381 6.81802 11.682C7.66193 12.5259 8.80653 13 10 13Z" fill="#6936F5"/>
</svg>
